<svg xmlns="http://www.w3.org/2000/svg" xmlns:xlink="http://www.w3.org/1999/xlink" width="31" height="30.5" viewBox="0 0 62 61"><defs><path id="a" d="M248.47 1208.6a16.99 16.99 0 0 1-16.97-16.97c0-9.36 7.61-16.97 16.97-16.97s16.97 7.6 16.97 16.97c0 9.35-7.61 16.97-16.97 16.97zm22.63-16.97a22.63 22.63 0 1 0-45.26 0 22.63 22.63 0 0 0 45.26 0z"/><path id="b" d="M284.52 1219.68l-13.84-13.84a26.64 26.64 0 0 1-8 8l13.85 13.84a5.65 5.65 0 1 0 8-8z"/></defs><use fill="#003c80" xlink:href="#a" transform="translate(-225 -1169)"/><use fill="#003c80" xlink:href="#b" transform="translate(-225 -1169)"/></svg>