<svg xmlns="http://www.w3.org/2000/svg" xmlns:xlink="http://www.w3.org/1999/xlink" width="41.5" height="30.5" viewBox="0 0 83 61"><defs><path id="a" d="M829.1 1205.94c-1.8-.36-2.9-1.63-4.25-3.17-1.67-1.92-3.72-4.27-7.64-4.71l.62-7.19c6.42.95 11.36 6.5 11.36 13.17a29 29 0 0 1-.1 1.9zm-1.38 13.02h-4.32c-.6-4.5-4.46-8-9.13-8a9.23 9.23 0 0 0-9.14 8h-19.4a9.23 9.23 0 0 0-18.27 0h-4.06l1.02-10.49h43.54l.09-.02h.04l.07-.03.05-.01.06-.03.05-.02.05-.02.05-.03.05-.03.05-.03a1.22 1.22 0 0 0 .34-.38l.02-.04.03-.06.02-.05.02-.06.02-.05.02-.06v-.05l.02-.06v-.07l.61-6.96h6.26c3.7 0 5.38 1.92 7.15 3.95 1.46 1.68 3.09 3.55 5.86 4-.35 3.73-.92 8.51-1.17 10.6zm-13.46 8a6.8 6.8 0 1 1 .02-13.6 6.8 6.8 0 0 1-.02 13.6zm-37.67 0a6.8 6.8 0 1 1 .02-13.6 6.8 6.8 0 0 1-.02 13.6zm33.88-36.23h4.95l-.63 7.26h-4.96zm5.4-2.42h-5.2l1.57-18v-.1c0-.5-.29-.92-.72-1.11h-.01a1.18 1.18 0 0 0-.09-.04h-.03l-.07-.02-.04-.02h-.07l-.06-.01h-.07l-.04-.01h-24.77a1.21 1.21 0 0 0 0 2.42h23.45l-2.4 27.65h-.01l-.6 6.98h-42.06l.7-7.26h8.01a1.21 1.21 0 1 0 0-2.42h-7.77l1.49-15.32h12.74a1.21 1.21 0 1 0 0-2.42h-12.5l.69-7.21h13.42a1.21 1.21 0 0 0 0-2.42h-14.52c-.57 0-1.06.4-1.18.95v.02l-.02.09v.03l-.83 8.54h-14.67a1.21 1.21 0 1 0 0 2.42h14.44l-1.49 15.32h-4.32a1.21 1.21 0 1 0 0 2.42h4.09l-.81 8.35-1.25 12.9v.08l-.01.06v.13l.02.1v.02l.02.07.01.04v.02c.07.18.17.34.3.47l.04.05c.09.07.18.14.28.19.03 0 .05.02.07.03h.02l.1.04.1.03h.02l.11.02h5.51c.6 4.51 4.46 8 9.13 8 4.67 0 8.54-3.49 9.13-8h19.41c.6 4.51 4.46 8 9.13 8 4.67 0 8.54-3.49 9.14-8h5.53l.1-.02h.03l.07-.03.05-.01.06-.02.05-.03a1.43 1.43 0 0 0 .2-.1c0-.02.02-.03.04-.04l.04-.03.05-.05.03-.03.05-.05.02-.03.05-.07.02-.02.06-.1.05-.1.01-.04.03-.07.01-.05.02-.06v-.06l.02-.05a428 428 0 0 0 1.42-12.93v-.01c.12-1.42.2-2.61.2-3.34 0-8.68-7.06-15.73-15.73-15.73z"/></defs><use fill="#003c80" xlink:href="#a" transform="translate(-749 -1169)"/></svg>