<svg xmlns="http://www.w3.org/2000/svg" xmlns:xlink="http://www.w3.org/1999/xlink" width="46.5" height="30" viewBox="0 0 93 60"><defs><path id="a" d="M1349.69 1201.36l-6.45 3.48-12.98-12.64h1.27a1.82 1.82 0 0 0 0-3.63h-11.93c-.3 0-.62.08-.89.23l-14.82 8.37a2.8 2.8 0 0 1-3.35-4.43l13.75-13.6a13.73 13.73 0 0 1 9.7-3.99h25.7zm-4.95 13.33c-.92.95-2.43.97-3.37.05l-6.02-5.85-.02-.01-5.93-5.77a1.82 1.82 0 0 0-2.53 2.6l9.42 9.16a2.38 2.38 0 0 1-3.31 3.42l-9.43-9.16-.05-.05-4.53-4.4a1.82 1.82 0 0 0-2.53 2.6l9.42 9.16a2.38 2.38 0 0 1-3.32 3.42l-2.64-2.57-.18-.15-.1-.1a5.75 5.75 0 0 0-4.06-1.3 5.75 5.75 0 0 0-6.11-5.03 5.73 5.73 0 0 0-6.11-5.03 5.75 5.75 0 0 0-10.18-2.95l-1.48 1.8c-.12.14-.24.3-.34.46a10.43 10.43 0 0 0-4.1-1.69v-27.15h6.88c.12 0 .23-.02.35-.04l14.83-2.9c2.52-.48 5.06-.54 7.55-.16-1.88.84-3.61 2.02-5.12 3.51l-13.74 13.6a6.45 6.45 0 0 0 4.53 11c1.08 0 2.17-.27 3.16-.83l14.4-8.13h4.97l19.64 19.13a2.36 2.36 0 0 1 .05 3.36zm-27.14 8.18l-1.48 1.79a2.13 2.13 0 0 1-3.01.29 2.15 2.15 0 0 1-.3-3.02l1.48-1.79a2.13 2.13 0 0 1 3.02-.29 2.13 2.13 0 0 1 .29 3.02zm-6.11-5.04l-1.48 1.8a2.13 2.13 0 0 1-3.01.29 2.13 2.13 0 0 1-.3-3.02l1.48-1.8a2.14 2.14 0 1 1 3.3 2.73zm-6.11-5.03l-1.48 1.8a2.15 2.15 0 0 1-3.3-2.73l1.47-1.8a2.13 2.13 0 0 1 3.02-.29 2.13 2.13 0 0 1 .29 3.02zm-6.11-5.03l-1.48 1.79a2.15 2.15 0 0 1-3.3-2.73l1.47-1.79a2.13 2.13 0 0 1 3.02-.3c.9.76 1.04 2.11.29 3.03zm63.85-23.2c1 0 1.81-.8 1.81-1.8v-11.95c0-1-.8-1.82-1.81-1.82h-9.8a3.64 3.64 0 0 0-3.46 2.52h-25.54l-.06-.03a25.72 25.72 0 0 0-15.65-1.84l-14.66 2.86h-6.7a3.63 3.63 0 0 0-3.63-3.51h-9.8c-1 0-1.82.81-1.82 1.82v11.66a1.82 1.82 0 0 0 3.63 0v-9.85h7.99v34.41h-7.99v-9.67a1.82 1.82 0 0 0-3.63 0v11.49c0 1 .81 1.81 1.82 1.81h9.8c2 0 3.63-1.63 3.63-3.63v-.02c.83.24 1.62.63 2.3 1.16l.85.66a5.75 5.75 0 0 0 6.12 5.11 5.73 5.73 0 0 0 6.11 5.04 5.73 5.73 0 0 0 6.12 5.03 5.75 5.75 0 0 0 10.18 2.95l1.47-1.8c.44-.52.76-1.1.98-1.71.86.46 1.82.7 2.82.7h.09a5.97 5.97 0 0 0 5.53-3.88l.63.61a6 6 0 0 0 9.9-2.47 6.02 6.02 0 0 0 6.87-9.7l-1.26-1.22 3.73-2.01v1.55c0 2 1.63 3.63 3.63 3.63h9.8c1 0 1.81-.81 1.81-1.81v-12.04a1.82 1.82 0 0 0-3.63 0v10.22h-7.98v-34.41h7.98v10.13c0 1 .82 1.82 1.82 1.82z"/></defs><use fill="#003c80" xlink:href="#a" transform="translate(-1272 -1169)"/></svg>